<?xml version="1.0" encoding="utf-8"?>
<!-- Generator: Adobe Illustrator 18.0.0, SVG Export Plug-In . SVG Version: 6.00 Build 0)  -->
<!DOCTYPE svg PUBLIC "-//W3C//DTD SVG 1.1//EN" "http://www.w3.org/Graphics/SVG/1.1/DTD/svg11.dtd">
<svg version="1.1" id="Layer_1" xmlns="http://www.w3.org/2000/svg" xmlns:xlink="http://www.w3.org/1999/xlink" x="0px" y="0px"
	 viewBox="0 0 171 166.9" enable-background="new 0 0 171 166.9" xml:space="preserve">
<g>
	<path fill="#8D9092" d="M85.1,162.7c-43.7,0-79.1-35.5-79.1-79.4c0-43.8,35.4-79.3,79.1-79.3s79.1,35.5,79.1,79.3
		C164.2,127.2,128.8,162.7,85.1,162.7z M116,36.5c-8.9-6-19.5-9.4-30.9-9.4c-30.9,0-56,25.2-56,56.2c0,11.4,3.4,21.9,9.2,30.8
		L116,36.5z M132.2,53l-77.6,77.5c8.9,5.8,19.4,9.2,30.6,9.2c30.9,0,56-25.2,56-56.3C141.1,72.1,137.8,61.7,132.2,53z"/>
</g>
</svg>
