<?xml version="1.0" encoding="utf-8"?>
<!-- Generator: Adobe Illustrator 18.0.0, SVG Export Plug-In . SVG Version: 6.00 Build 0)  -->
<!DOCTYPE svg PUBLIC "-//W3C//DTD SVG 1.1//EN" "http://www.w3.org/Graphics/SVG/1.1/DTD/svg11.dtd">
<svg version="1.1" id="Layer_1" xmlns="http://www.w3.org/2000/svg" xmlns:xlink="http://www.w3.org/1999/xlink" x="0px" y="0px"
	 viewBox="0 0 50 40" enable-background="new 0 0 50 40" xml:space="preserve">
<g>
	<path fill="#41BDD5" d="M46.9,23.2c-0.1,0.2-0.4,0.3-0.6,0.3c0,0-0.1,0-0.1,0c-0.2,0-0.4-0.1-0.6-0.2L25,6.1L4.3,23.3
		c-0.2,0.1-0.4,0.2-0.7,0.2c-0.2,0-0.5-0.1-0.6-0.3L1.1,21c-0.3-0.4-0.3-1,0.1-1.3L22.7,1.8c1.3-1,3.3-1,4.5,0l7.3,6.1V2.1
		c0-0.5,0.4-1,1-1h5.7c0.5,0,1,0.4,1,1v12.2l6.5,5.4c0.4,0.3,0.4,1,0.1,1.3L46.9,23.2z M42.1,37.4c0,1-0.9,1.9-1.9,1.9H28.8V27.8
		h-7.6v11.5H9.7c-1,0-1.9-0.9-1.9-1.9V23c0-0.1,0-0.1,0-0.2L25,8.7l17.1,14.1c0,0.1,0,0.1,0,0.2V37.4z"/>
</g>
</svg>
