<?xml version="1.0" encoding="utf-8"?>
<!-- Generator: Adobe Illustrator 18.0.0, SVG Export Plug-In . SVG Version: 6.00 Build 0)  -->
<!DOCTYPE svg PUBLIC "-//W3C//DTD SVG 1.1//EN" "http://www.w3.org/Graphics/SVG/1.1/DTD/svg11.dtd">
<svg version="1.1" id="Layer_1" xmlns="http://www.w3.org/2000/svg" xmlns:xlink="http://www.w3.org/1999/xlink" x="0px" y="0px"
	 viewBox="0 0 50 40" enable-background="new 0 0 50 40" xml:space="preserve">
<g>
	<path fill="#F49819" d="M43.5,26.5l-6.3,2v6.5c0,0.2-0.1,0.4-0.3,0.6c-0.2,0.1-0.4,0.2-0.6,0.1l-6.3-2L26,39
		c-0.1,0.2-0.3,0.3-0.6,0.3S25,39.1,24.9,39L21,33.7l-6.3,2c-0.2,0.1-0.4,0-0.6-0.1c-0.2-0.1-0.3-0.3-0.3-0.6v-6.5l-6.3-2
		C7.2,26.5,7,26.3,7,26.1c-0.1-0.2,0-0.4,0.1-0.6l3.9-5.3L7,15c-0.1-0.2-0.2-0.4-0.1-0.6C7,14.1,7.2,14,7.4,13.9l6.3-2V5.4
		c0-0.2,0.1-0.4,0.3-0.6c0.2-0.1,0.4-0.2,0.6-0.1l6.3,2l3.9-5.3c0.3-0.3,0.9-0.3,1.1,0l3.9,5.3l6.3-2c0.2-0.1,0.4,0,0.6,0.1
		c0.2,0.1,0.3,0.3,0.3,0.6v6.5l6.3,2c0.2,0.1,0.4,0.2,0.4,0.4c0.1,0.2,0,0.4-0.1,0.6l-3.9,5.3l3.9,5.3c0.1,0.2,0.2,0.4,0.1,0.6
		C43.9,26.3,43.7,26.5,43.5,26.5z M25.4,8c-6.9,0-12.5,5.5-12.5,12.2s5.6,12.2,12.5,12.2S37.9,27,37.9,20.2S32.3,8,25.4,8z"/>
</g>
<circle fill="#F49819" cx="25.4" cy="20.3" r="13.1"/>
<circle fill="#FFFFFF" cx="25.4" cy="20.3" r="7.6"/>
</svg>
