<?xml version="1.0" encoding="utf-8"?>
<!-- Generator: Adobe Illustrator 18.0.0, SVG Export Plug-In . SVG Version: 6.00 Build 0)  -->
<!DOCTYPE svg PUBLIC "-//W3C//DTD SVG 1.1//EN" "http://www.w3.org/Graphics/SVG/1.1/DTD/svg11.dtd">
<svg version="1.1" id="Layer_1" xmlns="http://www.w3.org/2000/svg" xmlns:xlink="http://www.w3.org/1999/xlink" x="0px" y="0px"
	 viewBox="0 0 144.7 143.7" enable-background="new 0 0 144.7 143.7" xml:space="preserve">
<circle fill="#FBAB18" cx="73.2" cy="72.3" r="43.1"/>
<path fill="#FBAB18" d="M58.6,57.5l-0.2,0.2c-3.8,3.8-10,3.8-13.8,0L23,36.1c-3.8-3.8-3.8-10,0-13.8l0.2-0.2c3.8-3.8,10-3.8,13.8,0
	l21.6,21.6C62.4,47.5,62.4,53.7,58.6,57.5z"/>
<path fill="#FBAB18" d="M124,122.9l-0.2,0.2c-3.8,3.8-10,3.8-13.8,0l-21.6-21.6c-3.8-3.8-3.8-10,0-13.8l0.2-0.2
	c3.8-3.8,10-3.8,13.8,0l21.6,21.6C127.8,112.9,127.8,119.1,124,122.9z"/>
<path fill="#FBAB18" d="M58.4,86.8l0.2,0.2c3.8,3.8,3.8,10,0,13.8l-21.6,21.6c-3.8,3.8-10,3.8-13.8,0l-0.2-0.2
	c-3.8-3.8-3.8-10,0-13.8l21.6-21.6C48.4,83,54.7,83,58.4,86.8z"/>
<path fill="#FBAB18" d="M123.8,21.4l0.2,0.2c3.8,3.8,3.8,10,0,13.8L102.4,57c-3.8,3.8-10,3.8-13.8,0l-0.2-0.2
	c-3.8-3.8-3.8-10,0-13.8L110,21.4C113.8,17.6,120,17.6,123.8,21.4z"/>
<path fill="#FBAB18" d="M51.2,72.8v0.3c0,5.4-4.4,9.7-9.7,9.7H11c-5.4,0-9.7-4.4-9.7-9.7v-0.3c0-5.4,4.4-9.7,9.7-9.7h30.5
	C46.9,63.1,51.2,67.5,51.2,72.8z"/>
<path fill="#FBAB18" d="M143.6,72.8v0.3c0,5.4-4.4,9.7-9.8,9.7h-30.5c-5.4,0-9.7-4.4-9.7-9.7v-0.3c0-5.4,4.4-9.7,9.7-9.7h30.5
	C139.3,63.1,143.6,67.5,143.6,72.8z"/>
<path fill="#FBAB18" d="M71.8,93.6h0.3c5.4,0,9.7,4.4,9.7,9.7v30.5c0,5.4-4.4,9.7-9.7,9.7h-0.3c-5.4,0-9.7-4.4-9.7-9.7v-30.5
	C62,98,66.4,93.6,71.8,93.6z"/>
<path fill="#FBAB18" d="M71.8,1.2h0.3c5.4,0,9.7,4.4,9.7,9.7v30.5c0,5.4-4.4,9.7-9.7,9.7h-0.3c-5.4,0-9.7-4.4-9.7-9.7V11
	C62,5.6,66.4,1.2,71.8,1.2z"/>
</svg>
