<?xml version="1.0" encoding="utf-8"?>
<!-- Generator: Adobe Illustrator 18.0.0, SVG Export Plug-In . SVG Version: 6.00 Build 0)  -->
<!DOCTYPE svg PUBLIC "-//W3C//DTD SVG 1.1//EN" "http://www.w3.org/Graphics/SVG/1.1/DTD/svg11.dtd">
<svg version="1.1" id="Layer_1" xmlns="http://www.w3.org/2000/svg" xmlns:xlink="http://www.w3.org/1999/xlink" x="0px" y="0px"
	 viewBox="0 0 400 200" enable-background="new 0 0 400 200" xml:space="preserve">
<path fill="#CCE7F9" d="M376.8,196.4H23.2c-9,0-16.2-7.3-16.2-16.2v-159C7,12.3,14.3,5,23.2,5h353.6c9,0,16.2,7.3,16.2,16.2v159
	C393,189.2,385.7,196.4,376.8,196.4z"/>
<g>
	<path fill="#FFFFFF" d="M240.5,147.6h-81.9c-18.6,0-33.7-15.1-33.7-33.7c0-13.1,7.6-25,19.4-30.5c-0.1-1.1-0.2-2.2-0.2-3.2
		c0-21.3,17.2-38.5,38.5-38.5c15.7,0,29.7,9.5,35.7,23.9c3.5-3,7.9-4.7,12.5-4.7c10.6,0,19.3,8.7,19.3,19.3c0,3.7-1.1,7.3-3.1,10.4
		c13.1,3.1,22.4,14.8,22.4,28.1C269.4,134.6,256.5,147.6,240.5,147.6z M220.6,95.3l-26.5-26.5c-0.5-0.5-1.1-0.7-1.7-0.7
		c-0.6,0-1.3,0.2-1.7,0.7l-26.4,26.4c-0.5,0.5-0.8,1.1-0.8,1.8c0,1.4,1.1,2.4,2.4,2.4h16.9v26.5c0,1.3,1.1,2.4,2.4,2.4h14.4
		c1.3,0,2.4-1.1,2.4-2.4V99.4h16.9c1.4,0,2.4-1.1,2.4-2.4C221.3,96.4,221,95.7,220.6,95.3z"/>
</g>
</svg>
